<svg xmlns="http://www.w3.org/2000/svg" xmlns:xlink="http://www.w3.org/1999/xlink" width="500" zoomAndPan="magnify" viewBox="0 0 375 374.999991" height="500" preserveAspectRatio="xMidYMid meet" version="1.0"><defs><clipPath id="10b5f57b50"><path d="M 19.773438 0 L 355.023438 0 L 355.023438 265 L 19.773438 265 Z M 19.773438 0 " clip-rule="nonzero"/></clipPath></defs><path fill="#384867" d="M 263.203125 277.847656 C 259.324219 276.101562 255.402344 274.609375 251.570312 273.460938 C 245.902344 271.742188 239.6875 270.730469 232.621094 270.339844 L 228.421875 270.109375 C 222.410156 269.789062 216.398438 269.445312 210.363281 269.355469 C 205.246094 269.285156 200.152344 269.492188 195.0625 269.675781 L 190.722656 269.835938 C 187.605469 269.949219 184.484375 270.066406 181.410156 270.457031 L 177.601562 270.9375 C 171.886719 271.648438 165.96875 272.382812 160.210938 273.53125 C 155.691406 274.425781 151.238281 275.597656 146.8125 276.792969 C 144.539062 277.386719 142.269531 278.007812 139.515625 278.558594 C 134.835938 276.585938 129.96875 274.382812 126.390625 270.984375 C 124.074219 268.757812 124.28125 267.105469 124.855469 265.632812 C 126.390625 261.777344 129.832031 259.070312 134.925781 255.921875 L 137.953125 254.042969 L 133.023438 248.117188 L 131.003906 248.808594 C 121.457031 252.089844 117.71875 261.410156 117.511719 261.914062 C 115.628906 267.289062 117.257812 272.359375 122.375 276.976562 C 124.945312 279.292969 127.929688 280.945312 131.070312 282.417969 C 130.863281 282.53125 130.679688 282.644531 130.476562 282.761719 C 126.070312 285.308594 121.160156 288.5 118.703125 293.824219 C 116.640625 298.234375 118.359375 302.089844 120.082031 304.9375 C 123.246094 310.195312 128.890625 312.972656 133.984375 314.96875 C 136.554688 315.980469 139.238281 316.804688 141.921875 317.609375 C 142.269531 317.722656 142.613281 317.816406 142.980469 317.90625 C 139.628906 320.570312 136.324219 323.945312 136.050781 328.8125 C 135.75 334.183594 137.679688 341.460938 148.554688 345.824219 C 151.101562 346.832031 153.761719 347.707031 156.402344 348.578125 L 156.835938 348.714844 C 154.589844 350.300781 152.9375 352.597656 152.269531 355.03125 C 151.71875 357.117188 151.972656 359.183594 152.984375 360.882812 C 154.265625 363.0625 156.492188 365.039062 158.925781 366.210938 C 165.121094 369.171875 172.1875 371.03125 181.179688 372.085938 C 183.246094 372.339844 185.285156 372.589844 187.328125 372.867188 C 189.898438 373.210938 192.445312 373.554688 195.015625 373.832031 C 196.988281 374.0625 198.984375 374.128906 200.980469 374.128906 C 201.347656 374.128906 201.691406 374.128906 202.058594 374.128906 L 226.976562 373.808594 C 227.226562 373.808594 227.730469 373.808594 228.03125 373.855469 C 229.5 374.152344 231.035156 373.648438 231.886719 372.546875 L 233.101562 370.777344 L 232.230469 369.035156 C 231.746094 368.070312 230.507812 366.898438 228.007812 366.96875 C 225.253906 367.011719 222.523438 367.105469 219.769531 367.195312 L 215.367188 367.335938 L 213.210938 367.335938 C 204.167969 367.585938 194.808594 367.105469 185.378906 365.933594 C 179.136719 365.152344 172.554688 364.234375 166.65625 362.007812 C 164.476562 361.183594 162.390625 360.195312 160.417969 359.046875 C 159.867188 358.726562 159.453125 358.082031 159.40625 357.460938 C 159.382812 357.117188 159.40625 356.613281 160.09375 356.015625 C 162.800781 353.699219 166.449219 352.640625 170.03125 351.839844 C 170.441406 351.746094 171.476562 351.976562 172.324219 352.160156 C 173.125 352.34375 173.929688 352.503906 174.710938 352.597656 L 179.414062 353.148438 C 183.636719 353.652344 187.832031 354.15625 192.078125 354.339844 C 200.0625 354.730469 209.539062 355.050781 219.015625 354.867188 C 225.757812 354.707031 232.988281 354.316406 240.121094 352.367188 C 241.132812 352.066406 242.09375 351.675781 242.921875 351.21875 C 244.960938 350.023438 246.0625 348.234375 245.972656 346.304688 C 245.878906 344.355469 244.574219 342.65625 242.394531 341.667969 C 238.261719 339.808594 233.742188 339.210938 229.84375 338.867188 C 223.464844 338.316406 217.15625 337.949219 211.144531 337.789062 C 208.894531 337.742188 206.601562 337.902344 204.308594 338.0625 C 203.046875 338.15625 201.785156 338.269531 200.519531 338.316406 C 189.761719 338.707031 178.769531 340.636719 167.917969 343.988281 C 166.566406 344.398438 165.761719 344.46875 164.9375 344.195312 C 163.285156 343.644531 161.632812 343.113281 159.980469 342.585938 C 156.929688 341.621094 153.878906 340.636719 150.941406 339.511719 C 147.726562 338.269531 145.273438 336.136719 144.011719 333.542969 C 143.574219 332.667969 142.289062 330.007812 146.054688 327.113281 C 149.058594 324.816406 152.433594 322.773438 154.816406 321.351562 C 154.816406 321.351562 155.253906 321.238281 156.515625 321.421875 C 158.972656 321.765625 161.425781 322.15625 163.878906 322.546875 C 168.445312 323.28125 173.035156 324.015625 177.648438 324.425781 C 185.265625 325.140625 192.835938 325.324219 200.566406 325.460938 C 207.542969 325.574219 214.355469 325.667969 221.171875 325.183594 L 225.324219 324.910156 C 232.046875 324.496094 239.019531 324.039062 245.789062 322.222656 C 247.96875 321.625 249.964844 320.871094 251.683594 319.949219 C 254.117188 318.6875 255.472656 316.578125 255.289062 314.304688 C 255.125 312.121094 253.566406 310.308594 251.132812 309.484375 C 245.972656 307.691406 241.683594 306.542969 237.667969 305.855469 C 231.863281 304.867188 225.964844 304.386719 220.4375 303.972656 C 214.792969 303.558594 209.722656 303.238281 204.582031 303.46875 C 199.238281 303.699219 193.890625 304.203125 188.542969 304.683594 L 181.546875 305.304688 C 173.449219 305.96875 165.394531 307.714844 156.332031 310.835938 C 154.816406 311.363281 153.304688 311.894531 151.996094 312.671875 C 151.351562 313.0625 150.847656 313.15625 149.449219 312.789062 C 143.851562 311.34375 137.425781 309.550781 132.171875 306.40625 C 129.945312 305.097656 127.949219 303.445312 126.367188 301.609375 C 125.839844 301.011719 125.632812 300.414062 125.679688 299.703125 C 125.792969 298.417969 126.804688 296.925781 128.457031 295.59375 C 132.425781 292.402344 137.472656 289.832031 144.332031 287.511719 C 145.113281 287.261719 145.824219 287.445312 147.132812 287.878906 L 148.09375 288.179688 C 156.148438 290.496094 164.980469 292.148438 175.054688 293.230469 C 179.4375 293.6875 183.863281 293.917969 188.292969 294.171875 C 191.046875 294.308594 193.820312 294.46875 196.574219 294.675781 C 205.316406 295.316406 214.839844 295.363281 225.691406 294.8125 C 235.210938 294.332031 245.996094 293.757812 256.503906 291.347656 C 258.476562 290.910156 260.542969 290.246094 262.765625 289.347656 C 265.589844 288.203125 267.308594 286.042969 267.355469 283.585938 C 267.402344 281.222656 265.863281 279.109375 263.25 277.917969 Z M 258.589844 283.289062 C 257.8125 283.703125 256.984375 284.046875 256.273438 284.160156 L 252.398438 284.847656 C 246.957031 285.8125 241.335938 286.824219 235.832031 287.238281 C 224.933594 288.039062 212.246094 288.820312 199.949219 288.019531 C 194.855469 287.695312 189.738281 287.398438 184.621094 287.097656 L 181.203125 286.914062 C 174.34375 286.527344 167.277344 285.515625 159.0625 283.746094 C 167.804688 281.820312 175.855469 280.535156 183.542969 279.820312 C 192.238281 279.019531 199.441406 278.535156 206.164062 278.261719 C 212.382812 278.03125 218.761719 278.191406 224.3125 278.375 C 230.738281 278.582031 237.367188 278.789062 243.769531 279.476562 C 249.734375 280.097656 254.4375 281.269531 258.589844 283.265625 Z M 232.6875 346.832031 C 228.8125 347.316406 224.933594 347.796875 221.03125 348.027344 C 212.269531 348.53125 203.296875 348.234375 195.566406 347.890625 C 194.003906 347.820312 192.515625 347.753906 191.070312 347.660156 C 194.761719 347.15625 198.617188 346.671875 202.449219 346.421875 C 208.414062 346.054688 214.402344 345.960938 220.390625 345.914062 C 224.65625 345.847656 228.421875 345.984375 231.839844 346.261719 C 232.710938 346.328125 233.628906 346.445312 234.570312 346.605469 L 232.664062 346.832031 Z M 182.761719 318.089844 C 178.609375 317.703125 174.480469 317.171875 170.375 316.597656 C 171.886719 316.207031 173.425781 315.839844 174.9375 315.519531 C 179.296875 314.578125 183.910156 314.027344 188.292969 313.523438 L 191.414062 313.179688 C 196.460938 312.582031 201.667969 311.984375 206.738281 311.871094 C 216.054688 311.664062 226.035156 311.640625 235.808594 312.902344 C 239.226562 313.339844 242.578125 314.097656 245.949219 315.039062 C 238.285156 317.378906 230.027344 317.929688 222.84375 318.230469 L 218.484375 318.4375 C 209.996094 318.824219 201.234375 319.238281 192.699219 318.527344 C 191.070312 318.390625 189.441406 318.34375 187.8125 318.320312 C 186.136719 318.273438 184.4375 318.230469 182.785156 318.070312 Z M 246.660156 315.246094 C 246.660156 315.246094 246.796875 315.269531 246.84375 315.289062 C 246.796875 315.289062 246.777344 315.3125 246.730469 315.335938 Z M 246.660156 315.246094 " fill-opacity="1" fill-rule="nonzero"/><g clip-path="url(#10b5f57b50)"><path fill="#384867" d="M 354.609375 61.84375 C 354.152344 59.777344 353.394531 57.667969 348.941406 55.371094 L 344.214844 53.257812 C 341.1875 52.085938 338.042969 52.683594 334.648438 52.960938 C 331.253906 53.234375 328.226562 55.96875 326.207031 61.179688 L 325.632812 62.648438 C 324.761719 64.921875 325.289062 69.28125 326.433594 71.117188 C 327.167969 72.335938 328.59375 73.460938 330.542969 74.539062 C 328.339844 80.277344 325.769531 85.878906 323.175781 91.457031 C 318.632812 101.214844 313.953125 110.878906 309.34375 120.613281 C 306.613281 126.375 304.019531 132.230469 301.21875 137.96875 C 297.226562 146.121094 293.050781 154.179688 289.058594 162.351562 C 287.042969 166.503906 284.3125 170.0625 280.707031 172.886719 C 277.472656 175.4375 274.308594 175.320312 270.84375 173.210938 C 266.070312 170.269531 264.050781 166.09375 264.464844 160.605469 C 265.085938 152.339844 265.703125 144.054688 266.367188 135.789062 C 266.875 129.476562 267.332031 123.1875 267.929688 116.894531 C 269.121094 104.40625 270.40625 91.941406 271.601562 79.453125 C 271.851562 76.882812 271.667969 74.285156 271.898438 71.738281 C 272.632812 63.199219 273.503906 54.660156 274.214844 46.117188 C 274.492188 42.742188 275.476562 41.871094 278.804688 41.230469 C 281.214844 40.746094 284.378906 40.058594 285.640625 38.3125 C 290.390625 31.792969 290.757812 19.511719 281.074219 14.714844 C 274.675781 11.523438 268.503906 11.660156 262.558594 15.632812 C 256.960938 19.375 256.960938 25 257.765625 30.785156 C 258.292969 34.59375 260.425781 37.121094 264.28125 37.921875 C 266.621094 38.40625 267.425781 39.851562 266.964844 42.03125 C 266.230469 45.613281 265.542969 49.21875 264.511719 52.730469 C 260.953125 64.761719 257.285156 76.765625 253.589844 88.75 C 250.492188 98.738281 247.234375 108.675781 244.160156 118.664062 C 241.566406 127.066406 238.835938 135.421875 236.75 143.9375 C 234.890625 151.539062 231.863281 158.332031 226.355469 163.867188 C 224.566406 165.679688 222.273438 167.953125 220.023438 168.179688 C 212.085938 169.03125 207.816406 166.988281 205.613281 158.515625 C 204.078125 152.640625 203.414062 146.488281 202.816406 140.425781 C 201.554688 127.546875 200.660156 114.621094 199.535156 101.722656 C 198.433594 89.027344 197.195312 76.332031 196.070312 63.636719 C 195.199219 53.785156 194.578125 43.890625 193.476562 34.066406 C 193.085938 30.667969 193.960938 28.695312 196.917969 27.132812 C 205.59375 22.519531 205.226562 13.839844 201.1875 7.296875 C 197.882812 1.902344 189.828125 -0.371094 183.429688 1.582031 C 178.265625 3.164062 173.492188 9.386719 173.058594 15.105469 C 172.644531 20.660156 176.0625 26.285156 181.109375 28.351562 C 185.265625 30.046875 185.171875 30.046875 184.414062 34.6875 C 183.980469 37.28125 183.75 39.941406 183.65625 42.582031 C 183.382812 50.871094 183.453125 59.160156 182.96875 67.421875 C 182.167969 80.921875 181.042969 94.375 180.03125 107.875 C 179.480469 115.242188 178.839844 122.613281 178.242188 130.003906 C 177.875 134.433594 177.464844 138.84375 177.1875 143.296875 C 176.890625 148.164062 176.820312 153.054688 176.429688 157.898438 C 175.695312 166.988281 166.265625 170.753906 160.234375 168.203125 C 155.324219 166.136719 152.226562 162.695312 150.574219 157.691406 C 146.902344 146.417969 143.140625 135.191406 139.421875 123.921875 C 132.082031 101.675781 124.785156 79.429688 117.398438 57.207031 C 116.34375 54.015625 114.851562 50.984375 113.910156 47.773438 C 113.589844 46.691406 114.023438 44.488281 114.757812 44.144531 C 118.773438 42.191406 120.3125 38.382812 122.351562 34.9375 C 124.417969 31.472656 123.476562 23.550781 120.242188 21.484375 C 112.121094 16.34375 107.785156 13.726562 98.5625 19.671875 C 92.664062 23.484375 90.277344 28.921875 91.839844 35.464844 C 93.695312 43.273438 96.816406 46.050781 104.847656 47.496094 C 105.972656 47.703125 107.554688 48.757812 107.828125 49.722656 C 108.539062 52.363281 108.722656 55.164062 109.023438 57.917969 C 110.078125 67.355469 111.066406 76.789062 112.097656 86.226562 C 112.648438 91.113281 113.289062 96.003906 113.796875 100.917969 C 114.757812 110.351562 115.242188 119.878906 116.664062 129.246094 C 118.613281 142.148438 120.585938 155.050781 119.164062 168.089844 C 118.867188 170.960938 117.238281 174.378906 115.078125 176.214844 C 111.777344 179.039062 100.992188 178.765625 97.78125 173.230469 C 92.894531 164.785156 87.847656 156.40625 83.003906 147.933594 C 78.738281 140.496094 74.699219 132.917969 70.453125 125.457031 C 67.472656 120.222656 64.238281 115.152344 61.230469 109.9375 C 55.425781 99.859375 49.761719 89.714844 43.886719 79.683594 C 42.761719 77.753906 42.761719 76.421875 43.933594 74.585938 C 45.953125 71.394531 48.359375 68.457031 48.222656 64.140625 C 48.039062 58.355469 44.503906 52.914062 39.066406 51.285156 C 33.699219 49.675781 26.3125 52.269531 23.351562 56.472656 C 18.96875 62.671875 18.535156 68.847656 22.34375 75.480469 C 24.84375 79.84375 29.984375 82.046875 34.664062 80.09375 C 36.910156 79.152344 37.898438 79.84375 38.632812 81.976562 C 40.308594 86.820312 42.1875 91.574219 43.957031 96.394531 C 46.867188 104.359375 49.78125 112.328125 52.652344 120.316406 C 55.175781 127.363281 57.492188 134.457031 60.085938 141.484375 C 65.910156 157.324219 71.832031 173.140625 77.703125 188.980469 C 81.285156 198.644531 84.816406 208.332031 88.398438 218 C 89.980469 222.246094 91.515625 226.515625 93.238281 230.714844 C 96.566406 238.933594 100.007812 247.085938 103.355469 255.28125 C 104.570312 258.242188 105.71875 261.226562 106.890625 264.210938 L 107.484375 264.210938 C 116.914062 263.636719 126.320312 262.789062 135.753906 262.535156 C 145.203125 262.28125 154.65625 262.71875 164.109375 262.648438 C 174.847656 262.558594 185.585938 262.191406 196.34375 262.054688 C 203.046875 261.960938 209.746094 262.097656 216.46875 262.097656 C 221.378906 262.097656 226.285156 261.984375 231.175781 261.960938 C 238.5625 261.914062 245.949219 261.871094 253.3125 261.914062 C 262.285156 261.984375 271.277344 262.214844 280.25 262.238281 C 280.984375 262.238281 282.109375 261.320312 282.359375 260.582031 C 283.347656 257.851562 283.945312 254.960938 284.882812 252.203125 C 286.285156 248.117188 288.050781 244.167969 289.3125 240.058594 C 291.5625 232.714844 293.488281 225.253906 295.667969 217.882812 C 299.109375 206.265625 302.621094 194.675781 306.175781 183.082031 C 309.664062 171.648438 313.265625 160.261719 316.753906 148.828125 C 319.277344 140.542969 321.59375 132.160156 324.1875 123.898438 C 326.664062 116 329.441406 108.195312 331.988281 100.320312 C 334.351562 92.972656 336.644531 85.605469 338.894531 78.234375 C 338.9375 78.074219 339.007812 77.9375 339.054688 77.800781 C 342.082031 78.464844 344.675781 78.625 346.808594 78.257812 C 349.652344 77.777344 350.730469 77.339844 351.582031 76.191406 C 352.476562 75.296875 353.074219 74.609375 353.347656 74.148438 C 353.625 73.691406 354.105469 72.75 354.402344 71.921875 C 355.273438 69.648438 355.070312 64.046875 354.585938 61.914062 Z M 262.558594 24.195312 C 261.480469 22.335938 265.269531 18.824219 267.449219 18.339844 C 268.824219 18.042969 270.566406 17.90625 272.519531 18.730469 C 274.125 20.316406 273.023438 21.347656 272.355469 22.199219 C 269.398438 26.007812 264.511719 26.878906 262.558594 24.195312 Z M 180.238281 13.40625 C 179.414062 13.222656 178.425781 11.683594 178.359375 10.695312 C 178.175781 8.238281 180.492188 6.105469 182.96875 6.148438 C 183.65625 6.148438 184.324219 6.5625 184.691406 6.703125 C 185.46875 9.089844 182.121094 13.816406 180.214844 13.40625 Z M 98.722656 29.382812 C 98.011719 29.199219 97.574219 28.992188 97.230469 28.351562 C 96.75 27.429688 96.792969 26.46875 97.367188 25.6875 C 99.179688 23.160156 102.757812 23 105.695312 25.570312 C 106.796875 27.84375 102.277344 30.371094 98.722656 29.382812 Z M 29.15625 65.171875 C 29.15625 65.171875 29.132812 65.171875 29.132812 65.171875 C 29.132812 65.171875 29.132812 65.171875 29.109375 65.171875 C 29.066406 65.195312 28.558594 64.78125 28.078125 64.253906 C 27.6875 64.347656 27.296875 64.371094 27.023438 64.300781 C 26.929688 64.277344 25.347656 62.96875 25.257812 62.164062 C 25.050781 60.214844 29.15625 56.886719 31.039062 57.367188 C 31.429688 57.460938 31.679688 57.828125 31.980469 58.332031 C 32 58.332031 32.023438 58.332031 32.070312 58.332031 C 32.484375 58.21875 32.875 58.171875 33.195312 58.238281 C 33.859375 58.402344 34.410156 59.136719 35.671875 60.144531 C 33.21875 62.121094 31.265625 63.726562 29.203125 65.171875 Z M 279.125 233.769531 C 266.714844 233.839844 254.300781 233.839844 241.886719 233.886719 C 232.597656 233.90625 223.28125 233.976562 213.988281 233.976562 L 213.921875 233.976562 C 206.945312 233.976562 199.949219 233.839844 192.972656 233.90625 C 185.722656 233.976562 178.472656 234.296875 171.222656 234.34375 C 171.222656 234.34375 171.199219 234.34375 171.175781 234.34375 C 164.980469 234.390625 158.789062 234.183594 152.59375 234.160156 C 145.914062 234.136719 139.238281 234.160156 132.5625 234.183594 C 126.230469 234.230469 119.921875 234.34375 113.589844 234.4375 C 112.601562 234.4375 111.59375 234.390625 110.628906 234.550781 C 109.480469 234.734375 108.609375 234.847656 107.898438 234.824219 C 105.765625 234.824219 105.28125 233.839844 104.503906 230.53125 C 103.882812 227.894531 104.550781 227.089844 107.257812 227.25 C 107.257812 227.25 107.257812 227.25 107.277344 227.25 C 107.277344 227.25 107.277344 227.25 107.324219 227.25 C 107.828125 227.273438 108.3125 227.320312 108.816406 227.34375 C 109.34375 227.480469 129.949219 227.730469 145.527344 227.777344 C 148.441406 227.777344 151.332031 227.777344 154.246094 227.777344 L 154.957031 227.777344 C 161.746094 227.710938 168.539062 227.34375 175.328125 227.34375 L 175.902344 227.34375 C 175.902344 227.34375 175.925781 227.34375 175.949219 227.34375 C 187.742188 227.363281 199.511719 227.710938 211.28125 227.753906 C 217.386719 227.777344 223.488281 227.457031 229.589844 227.386719 C 238.835938 227.296875 248.105469 227.386719 257.351562 227.226562 C 265.3125 227.066406 273.273438 226.609375 281.238281 226.378906 C 281.238281 226.378906 281.28125 226.378906 281.28125 226.378906 C 281.96875 226.378906 283.027344 226.859375 283.277344 227.410156 C 284.21875 229.453125 281.398438 233.722656 279.125 233.746094 Z M 283.988281 214.691406 C 269.878906 214.875 255.792969 215.105469 241.683594 215.242188 C 232.457031 215.335938 223.210938 215.359375 213.964844 215.382812 C 198.15625 215.425781 182.351562 215.40625 166.566406 215.519531 C 148.027344 215.632812 129.488281 215.816406 110.949219 216.023438 C 108.195312 216.046875 105.421875 216.414062 102.667969 216.574219 C 102.667969 216.574219 102.667969 216.574219 102.644531 216.574219 C 102.644531 216.574219 102.621094 216.574219 102.597656 216.574219 C 99.5 216.78125 96.910156 214.578125 96.929688 211.570312 C 96.929688 209.871094 97.871094 208.90625 99.777344 208.953125 C 99.777344 208.953125 99.824219 208.953125 99.84375 208.953125 C 100.210938 208.953125 100.578125 208.953125 100.945312 208.953125 C 102.828125 208.953125 106.363281 208.882812 110.765625 208.792969 L 110.765625 208.195312 L 110.835938 208.195312 C 123.59375 208.195312 136.347656 208.148438 149.105469 208.195312 C 163.308594 208.242188 177.484375 208.472656 191.6875 208.472656 C 201.417969 208.472656 211.121094 208.148438 220.847656 208.148438 C 220.847656 208.148438 220.847656 208.148438 220.871094 208.148438 C 220.871094 208.148438 220.894531 208.148438 220.917969 208.148438 C 227.9375 208.148438 234.960938 208.515625 242.003906 208.515625 C 249.710938 208.515625 257.398438 208.289062 265.105469 208.125 C 271.460938 207.988281 277.816406 207.804688 284.171875 207.667969 C 284.609375 207.667969 285.089844 207.644531 285.527344 207.667969 C 286.902344 207.714844 288.140625 208.035156 288.234375 210.007812 C 288.347656 212.464844 286.214844 214.667969 284.035156 214.691406 Z M 336.460938 66.917969 C 335.636719 66.734375 334.648438 65.195312 334.578125 64.207031 C 334.398438 61.753906 336.714844 59.617188 339.191406 59.664062 C 339.878906 59.664062 340.546875 60.078125 340.914062 60.214844 C 341.691406 62.601562 338.34375 67.332031 336.4375 66.917969 Z M 336.460938 66.917969 " fill-opacity="1" fill-rule="nonzero"/></g></svg>